<svg width="20" height="20" viewBox="0 0 20 20" fill="none" xmlns="http://www.w3.org/2000/svg">
<g id="Edit">
<path id="Shape" d="M11.6768 4.38444L15.6128 8.32044L7.57488 16.359C7.36979 16.5641 7.12305 16.7217 6.85218 16.8215L6.6869 16.8744L2.63193 17.9803C2.28534 18.0748 1.96528 17.7862 2.00282 17.4457L2.01799 17.3663L3.12389 13.3113C3.2002 13.0315 3.33627 12.7723 3.52194 12.5513L3.6392 12.4234L11.6768 4.38444ZM13.245 2.81755C14.3318 1.73074 16.0939 1.73074 17.1807 2.81755C18.2222 3.85907 18.2656 5.52075 17.3109 6.61395L17.1807 6.75322L16.3198 7.61344L12.3838 3.67744L13.245 2.81755Z" fill="#667085"/>
</g>
</svg>
