<svg width="58" height="43" viewBox="0 0 58 43" fill="none" xmlns="http://www.w3.org/2000/svg">
<path d="M35.2938 40.5154C34.2788 41.5303 32.8673 42.1603 31.3158 42.1603H20.4434V36.5374C20.4434 33.4285 22.9573 30.9146 26.0662 30.9146H31.3099C34.4188 30.9146 36.9386 33.4285 36.9386 36.5374C36.9386 38.0889 36.3087 39.5005 35.2879 40.5154H35.2938Z" fill="white"/>
<path d="M47.2571 27.1647H15.5556C12.5575 27.1647 10.131 24.639 10.131 21.536C10.131 19.9903 10.7318 18.5787 11.7175 17.5638C12.6975 16.5489 14.0565 15.9131 15.5556 15.9131H41.8267C44.8248 15.9131 47.2571 18.4387 47.2571 21.536V27.1647Z" fill="white"/>
<path d="M55.5219 9.89359C54.577 10.9085 53.2763 11.5385 51.8356 11.5385H0.949829V5.91558C0.949829 2.80667 3.28297 0.292725 6.16439 0.292725H51.8356C54.717 0.292725 57.0501 2.80667 57.0501 5.91558C57.0501 7.46712 56.461 8.87867 55.5219 9.89359Z" fill="white"/>
</svg>
