<svg width="340" height="223" viewBox="0 0 340 223" fill="none" xmlns="http://www.w3.org/2000/svg">
<path d="M0.909668 124.714L9.62468 118.675L10.6539 129.654L0.909668 124.714Z" fill="#FFEFE4"/>
<path fill-rule="evenodd" clip-rule="evenodd" d="M274.778 3.18141C275.134 3.14358 275.453 3.40155 275.491 3.7576L276.01 8.64365L281.041 8.10915C281.397 8.07132 281.716 8.32929 281.754 8.68534C281.792 9.04139 281.534 9.36069 281.178 9.39853L276.147 9.93302L276.667 14.8191C276.704 15.1751 276.447 15.4944 276.09 15.5323C275.734 15.5701 275.415 15.3121 275.377 14.9561L274.858 10.07L269.913 10.5955C269.557 10.6333 269.238 10.3753 269.2 10.0193C269.162 9.66325 269.42 9.34394 269.776 9.30611L274.721 8.78066L274.202 3.89461C274.164 3.53855 274.422 3.21925 274.778 3.18141Z" fill="#FFEFE4"/>
<path fill-rule="evenodd" clip-rule="evenodd" d="M124.771 4.56519C125.027 4.81588 125.031 5.22635 124.78 5.482L121.601 8.72362L124.939 11.9971C125.195 12.2477 125.199 12.6582 124.948 12.9139C124.698 13.1695 124.287 13.1735 124.032 12.9228L120.693 9.6494L117.515 12.891C117.264 13.1467 116.853 13.1507 116.598 12.9C116.342 12.6493 116.338 12.2388 116.589 11.9832L119.768 8.74156L116.487 5.52403C116.231 5.27334 116.227 4.86286 116.478 4.60722C116.728 4.35157 117.139 4.34755 117.394 4.59825L120.675 7.81577L123.854 4.57416C124.105 4.31851 124.515 4.31449 124.771 4.56519Z" fill="#FFEFE4"/>
<path d="M309.054 121.708L319.585 120.473L315.334 130.648L309.054 121.708Z" fill="#FFEFE4"/>
<path d="M174.93 125.921C174.93 129.739 171.835 132.835 168.016 132.835C164.197 132.835 161.101 129.739 161.101 125.921C161.101 122.102 164.197 119.006 168.016 119.006C171.835 119.006 174.93 122.102 174.93 125.921Z" fill="#FFEFE4"/>
<path d="M219.149 12.1863C219.149 16.2704 215.839 19.5813 211.754 19.5813C207.67 19.5813 204.359 16.2704 204.359 12.1863C204.359 8.10211 207.67 4.79126 211.754 4.79126C215.839 4.79126 219.149 8.10211 219.149 12.1863Z" fill="#FFEFE4"/>
<path fill-rule="evenodd" clip-rule="evenodd" d="M63.9995 164.211V182.099H85.7225V165.5L63.9995 164.211ZM137.031 168.285V182.099H276.785V175.869L137.031 168.285Z" fill="#FFEFE4"/>
<path d="M137.031 182.099V168.285V139.058L109.493 201.889H137.031V182.099Z" fill="#FFEFE4"/>
<path fill-rule="evenodd" clip-rule="evenodd" d="M188.166 24.5301C174.404 26.8225 162.941 35.9207 157.359 48.2524C156.122 50.983 155.175 53.8722 154.554 56.8817C158.158 51.8472 164.688 47.1836 174.567 44.4499C175.076 42.8155 175.652 41.2271 176.299 39.6971C178.968 33.3806 182.868 27.9954 188.166 24.5301ZM193.751 24.464C186.822 27.1287 181.834 33.0252 178.603 40.6709C178.182 41.6652 177.793 42.6874 177.433 43.7336C182.171 42.6705 187.598 42.0293 193.751 41.9528V24.464ZM193.751 44.4541C187.102 44.5377 181.405 45.2872 176.569 46.4951C175.015 51.9703 174.217 57.9734 174.113 64.0158H193.751V44.4541ZM196.253 64.0158V44.4541C202.902 44.5377 208.6 45.2872 213.435 46.4951C214.989 51.9703 215.787 57.9734 215.891 64.0158H196.253ZM193.751 66.5171H174.11C174.121 67.3184 174.145 68.1192 174.18 68.9185C174.411 74.148 175.151 79.2746 176.341 83.9803C181.225 85.2219 186.998 85.9938 193.751 86.0787V66.5171ZM196.253 86.0787V66.5171H215.895C215.883 67.3184 215.86 68.1192 215.824 68.9185C215.593 74.148 214.853 79.2746 213.663 83.9803C208.779 85.2219 203.007 85.9938 196.253 86.0787ZM193.751 88.5801C187.453 88.5017 181.917 87.8319 177.1 86.7236C178.047 89.859 179.204 92.7623 180.553 95.3277C183.986 101.855 188.504 105.939 193.751 106.5V88.5801ZM185.28 105.415C182.563 103.201 180.24 100.107 178.339 96.492C176.703 93.3806 175.346 89.8296 174.289 86.0052C164.566 83.2615 158.124 78.6385 154.554 73.6517C157.778 89.2843 169.837 101.689 185.28 105.415ZM153.937 66.5171C155.296 72.3186 161.214 79.3429 173.579 83.2005C172.539 78.6984 171.896 73.8924 171.681 69.0291C171.644 68.1938 171.62 67.356 171.608 66.5171H153.937ZM171.612 64.0158C171.707 58.3053 172.403 52.5944 173.768 47.2739C161.274 51.1186 155.303 58.1848 153.937 64.0158H171.612ZM204.724 105.415C207.442 103.201 209.764 100.107 211.665 96.492C213.301 93.3806 214.658 89.8296 215.715 86.0052C225.439 83.2615 231.88 78.6385 235.45 73.6516C232.226 89.2843 220.167 101.689 204.724 105.415ZM235.45 56.8817C234.83 53.8722 233.882 50.983 232.646 48.2524C227.063 35.9207 215.601 26.8225 201.838 24.5301C207.136 27.9954 211.036 33.3806 213.706 39.6971C214.352 41.2271 214.928 42.8155 215.437 44.4499C225.316 47.1836 231.847 51.8472 235.45 56.8817ZM216.236 47.2739C217.601 52.5944 218.297 58.3053 218.393 64.0158H236.067C234.701 58.1848 228.73 51.1186 216.236 47.2739ZM236.067 66.5171H218.396C218.384 67.356 218.36 68.1938 218.323 69.0291C218.108 73.8924 217.465 78.6984 216.425 83.2005C228.79 79.3429 234.708 72.3186 236.067 66.5171ZM212.571 43.7336C207.833 42.6705 202.406 42.0293 196.253 41.9528V24.464C203.183 27.1287 208.17 33.0252 211.402 40.6709C211.822 41.6652 212.211 42.6874 212.571 43.7336ZM212.904 86.7236C208.088 87.8319 202.551 88.5017 196.253 88.5801V106.5C201.501 105.939 206.018 101.855 209.451 95.3277C210.8 92.7623 211.958 89.859 212.904 86.7236ZM155.421 46.486C162.451 31.6949 177.531 21.4657 195.002 21.4657C212.473 21.4657 227.553 31.6949 234.583 46.486H271.818C281.46 46.486 289.277 54.3025 289.277 63.9445V188.663H299.556V193.942C299.556 201.078 293.772 206.862 286.636 206.862H138.315V213.53C138.315 218.517 134.272 222.56 129.284 222.56H93.4888C88.5014 222.56 84.4584 218.517 84.4584 213.53V207.522H54.5727C47.437 207.522 41.6523 201.738 41.6523 194.602V188.663H51.7424V63.9445C51.7424 54.3025 59.5589 46.486 69.201 46.486H155.421ZM154.327 48.9873H69.201C60.9403 48.9873 54.2437 55.6839 54.2437 63.9445V188.663H84.4584V130.197C84.4584 125.21 88.5014 121.167 93.4888 121.167H129.284C134.272 121.167 138.315 125.21 138.315 130.197V188.663H286.775V63.9445C286.775 55.6839 280.079 48.9873 271.818 48.9873H235.677C237.694 54.0213 238.803 59.5157 238.803 65.2664C238.803 89.4569 219.193 109.067 195.002 109.067C170.812 109.067 151.201 89.4569 151.201 65.2664C151.201 59.5157 152.31 54.0213 154.327 48.9873ZM138.315 191.164V204.361H286.636C292.39 204.361 297.055 199.696 297.055 193.942V191.164H138.315ZM84.4584 191.164H44.1536V194.602C44.1536 200.356 48.8184 205.021 54.5727 205.021H84.4584V191.164ZM93.4888 123.668C89.8828 123.668 86.9596 126.591 86.9596 130.197V213.53C86.9596 217.136 89.8828 220.059 93.4888 220.059H129.284C132.89 220.059 135.814 217.136 135.814 213.53V130.197C135.814 126.591 132.89 123.668 129.284 123.668H93.4888Z" fill="#FF914D"/>
<path fill-rule="evenodd" clip-rule="evenodd" d="M71.2441 59.5321C67.6509 59.5321 64.7379 62.4451 64.7379 66.0383V181.489H85.7379C86.0832 181.489 86.3632 181.769 86.3632 182.115C86.3632 182.46 86.0832 182.74 85.7379 182.74H63.4873V66.0383C63.4873 61.7543 66.9601 58.2815 71.2441 58.2815H153.394C153.74 58.2815 154.02 58.5615 154.02 58.9068C154.02 59.2522 153.74 59.5321 153.394 59.5321H71.2441ZM235.953 58.9068C235.953 58.5615 236.233 58.2815 236.578 58.2815H269.664C273.948 58.2815 277.421 61.7543 277.421 66.0383V182.74H137.033C136.687 182.74 136.407 182.46 136.407 182.115C136.407 181.769 136.687 181.489 137.033 181.489H276.17V66.0383C276.17 62.445 273.257 59.5321 269.664 59.5321H236.578C236.233 59.5321 235.953 59.2522 235.953 58.9068ZM105.007 131.164C105.007 130.819 105.287 130.539 105.632 130.539H116.913C117.258 130.539 117.538 130.819 117.538 131.164C117.538 131.51 117.258 131.789 116.913 131.789H105.632C105.287 131.789 105.007 131.51 105.007 131.164ZM85.1125 139.036C85.1125 138.691 85.3925 138.411 85.7379 138.411H137.033C137.378 138.411 137.658 138.691 137.658 139.036C137.658 139.382 137.378 139.662 137.033 139.662H85.7379C85.3925 139.662 85.1125 139.382 85.1125 139.036ZM85.1125 201.834C85.1125 201.489 85.3925 201.209 85.7379 201.209H137.033C137.378 201.209 137.658 201.489 137.658 201.834C137.658 202.179 137.378 202.459 137.033 202.459H85.7379C85.3925 202.459 85.1125 202.179 85.1125 201.834Z" fill="#FF914D"/>
<path fill-rule="evenodd" clip-rule="evenodd" d="M194.56 7.57767C179.195 7.57767 165.226 13.5493 154.846 23.2996C154.594 23.536 154.198 23.5236 153.962 23.2719C153.725 23.0202 153.738 22.6244 153.989 22.388C164.593 12.4286 178.865 6.32703 194.56 6.32703C202.738 6.32703 210.582 8.10293 218.087 11.1912C219.166 9.09631 221.35 7.66224 223.87 7.66224C227.461 7.66224 230.372 10.573 230.372 14.1637C230.372 17.7543 227.461 20.6651 223.87 20.6651C220.28 20.6651 217.369 17.7543 217.369 14.1637C217.369 13.5361 217.458 12.9286 217.625 12.3534C210.244 9.3147 202.557 7.57767 194.56 7.57767ZM223.87 8.91288C221.654 8.91288 219.757 10.2865 218.986 12.2313C218.75 12.8285 218.62 13.4801 218.62 14.1637C218.62 17.0636 220.97 19.4145 223.87 19.4145C226.77 19.4145 229.121 17.0636 229.121 14.1637C229.121 11.2637 226.77 8.91288 223.87 8.91288ZM236.667 24.7721C236.917 24.5343 237.313 24.5446 237.551 24.7951C247.64 35.4218 253.832 49.7879 253.832 65.5987C253.832 72.9819 252.482 80.0512 250.014 86.5722C249.892 86.8952 249.531 87.058 249.208 86.9357C248.885 86.8135 248.722 86.4526 248.844 86.1296C251.259 79.7479 252.581 72.8284 252.581 65.5987C252.581 50.1209 246.522 36.0598 236.644 25.6562C236.406 25.4057 236.417 25.0099 236.667 24.7721ZM148.079 29.8267C148.355 30.0347 148.41 30.4267 148.202 30.7025C147.365 31.8125 146.567 32.9535 145.81 34.1235C145.623 34.4135 145.235 34.4965 144.946 34.3088C144.656 34.1212 144.573 33.7341 144.76 33.4442C145.533 32.249 146.349 31.0834 147.203 29.9496C147.411 29.6738 147.803 29.6188 148.079 29.8267ZM141.851 39.8476C142.163 39.9961 142.296 40.3692 142.147 40.681C138.552 48.2299 136.539 56.6784 136.539 65.5987C136.539 81.8944 143.256 96.6202 154.075 107.16C154.322 107.401 154.327 107.797 154.086 108.044C153.845 108.292 153.449 108.297 153.202 108.056C142.152 97.2903 135.289 82.2455 135.289 65.5987C135.289 56.4884 137.344 47.8566 141.018 40.1433C141.166 39.8315 141.54 39.6991 141.851 39.8476ZM245.793 94.1686C246.093 94.3403 246.196 94.7224 246.025 95.022C245.326 96.241 244.586 97.4328 243.805 98.5954C243.613 98.8821 243.224 98.9585 242.937 98.766C242.651 98.5735 242.574 98.185 242.767 97.8983C243.531 96.7602 244.256 95.5935 244.939 94.4003C245.111 94.1007 245.493 93.9969 245.793 94.1686ZM235.902 107.199C236.143 107.447 236.138 107.843 235.89 108.084C225.214 118.471 210.634 124.87 194.56 124.87C190.623 124.87 186.775 124.486 183.051 123.754C181.94 125.742 179.814 127.089 177.372 127.089C173.781 127.089 170.87 124.178 170.87 120.587C170.87 119.743 171.031 118.936 171.325 118.194C172.277 115.789 174.625 114.086 177.372 114.086C180.962 114.086 183.873 116.997 183.873 120.587C183.873 121.281 183.764 121.951 183.562 122.579C187.123 123.262 190.799 123.62 194.56 123.62C210.295 123.62 224.566 117.357 235.018 107.187C235.266 106.946 235.661 106.952 235.902 107.199ZM177.372 115.336C175.155 115.336 173.258 116.71 172.488 118.655C172.251 119.252 172.121 119.904 172.121 120.587C172.121 123.487 174.472 125.838 177.372 125.838C179.486 125.838 181.309 124.589 182.142 122.785C182.45 122.117 182.622 121.373 182.622 120.587C182.622 117.687 180.271 115.336 177.372 115.336Z" fill="#FF914D"/>
<path d="M339.091 68.5618C339.091 71.3295 336.847 73.5732 334.079 73.5732C331.312 73.5732 329.068 71.3295 329.068 68.5618C329.068 65.794 331.312 63.5503 334.079 63.5503C336.847 63.5503 339.091 65.794 339.091 68.5618Z" fill="#FFEFE4"/>
<path d="M28.9009 50.4786C28.9009 53.2464 26.6572 55.4901 23.8894 55.4901C21.1216 55.4901 18.8779 53.2464 18.8779 50.4786C18.8779 47.7109 21.1216 45.4672 23.8894 45.4672C26.6572 45.4672 28.9009 47.7109 28.9009 50.4786Z" fill="#FFEFE4"/>
<path fill-rule="evenodd" clip-rule="evenodd" d="M31.5797 41.9173C29.0805 41.9173 27.0545 43.9433 27.0545 46.4425C27.0545 48.9418 29.0805 50.9678 31.5797 50.9678C34.079 50.9678 36.105 48.9418 36.105 46.4425C36.105 43.9433 34.079 41.9173 31.5797 41.9173ZM26.082 46.4425C26.082 43.4062 28.5434 40.9448 31.5797 40.9448C34.616 40.9448 37.0775 43.4062 37.0775 46.4425C37.0775 49.4788 34.616 51.9402 31.5797 51.9402C28.5434 51.9402 26.082 49.4788 26.082 46.4425Z" fill="#FF914D"/>
<path fill-rule="evenodd" clip-rule="evenodd" d="M330.825 60.6296C328.739 60.6296 327.049 62.3201 327.049 64.4055C327.049 66.4909 328.739 68.1815 330.825 68.1815C332.91 68.1815 334.601 66.4909 334.601 64.4055C334.601 62.3201 332.91 60.6296 330.825 60.6296ZM326.076 64.4055C326.076 61.783 328.202 59.6571 330.825 59.6571C333.447 59.6571 335.573 61.783 335.573 64.4055C335.573 67.028 333.447 69.1539 330.825 69.1539C328.202 69.1539 326.076 67.028 326.076 64.4055Z" fill="#FF914D"/>
<path fill-rule="evenodd" clip-rule="evenodd" d="M270.565 6.62123C270.921 6.5834 271.241 6.84137 271.278 7.19742L271.798 12.0835L276.828 11.549C277.184 11.5111 277.503 11.7691 277.541 12.1252C277.579 12.4812 277.321 12.8005 276.965 12.8383L271.935 13.3728L272.454 18.2589C272.492 18.6149 272.234 18.9343 271.878 18.9721C271.522 19.0099 271.202 18.752 271.164 18.3959L270.645 13.5098L265.7 14.0353C265.344 14.0731 265.025 13.8152 264.987 13.4591C264.949 13.1031 265.207 12.7838 265.563 12.7459L270.508 12.2205L269.989 7.33442C269.951 6.97837 270.209 6.65907 270.565 6.62123Z" fill="#FF914D"/>
<path fill-rule="evenodd" clip-rule="evenodd" d="M118.949 4.94092C119.204 5.19161 119.208 5.60209 118.958 5.85773L115.779 9.09935L119.117 12.3728C119.373 12.6235 119.377 13.0339 119.126 13.2896C118.875 13.5452 118.465 13.5493 118.209 13.2986L114.871 10.0251L111.692 13.2667C111.441 13.5224 111.031 13.5264 110.775 13.2757C110.52 13.025 110.516 12.6145 110.766 12.3589L113.945 9.11729L110.664 5.89976C110.408 5.64907 110.404 5.2386 110.655 4.98295C110.906 4.7273 111.316 4.72328 111.572 4.97398L114.853 8.1915L118.032 4.94989C118.282 4.69424 118.693 4.69023 118.949 4.94092Z" fill="#FF914D"/>
<path fill-rule="evenodd" clip-rule="evenodd" d="M13.1255 113.912C13.3865 114.033 13.5635 114.284 13.5904 114.571L14.5582 124.896C14.5858 125.19 14.4513 125.475 14.2073 125.641C13.9632 125.807 13.6482 125.828 13.3849 125.694L4.22126 121.048C3.96664 120.919 3.79873 120.665 3.77924 120.38C3.75975 120.096 3.89154 119.822 4.12619 119.659L12.322 113.98C12.5586 113.816 12.8645 113.79 13.1255 113.912ZM6.16661 120.217L12.8074 123.584L12.106 116.102L6.16661 120.217Z" fill="#FF914D"/>
<path fill-rule="evenodd" clip-rule="evenodd" d="M314.51 128.106C314.695 128.326 314.75 128.629 314.653 128.9L311.175 138.67C311.076 138.948 310.834 139.15 310.542 139.198C310.251 139.245 309.957 139.131 309.775 138.898L303.426 130.82C303.25 130.596 303.205 130.295 303.307 130.029C303.41 129.762 303.645 129.569 303.926 129.521L313.752 127.829C314.036 127.781 314.324 127.886 314.51 128.106ZM305.541 130.887L310.141 136.742L312.662 129.662L305.541 130.887Z" fill="#FF914D"/>
<path fill-rule="evenodd" clip-rule="evenodd" d="M111.273 211.228C110.931 211.228 110.655 211.505 110.655 211.846C110.655 212.187 110.931 212.464 111.273 212.464C111.614 212.464 111.891 212.187 111.891 211.846C111.891 211.505 111.614 211.228 111.273 211.228ZM111.273 213.821C112.364 213.821 113.248 212.937 113.248 211.846C113.248 210.755 112.364 209.871 111.273 209.871C110.182 209.871 109.298 210.755 109.298 211.846C109.298 212.937 110.182 213.821 111.273 213.821Z" fill="#FF914D"/>
<path d="M114.406 188.212C113.9 188.717 113.198 189.031 112.425 189.031H107.012V186.231C107.012 184.683 108.264 183.432 109.812 183.432H112.422C113.97 183.432 115.225 184.683 115.225 186.231C115.225 187.004 114.911 187.706 114.403 188.212H114.406Z" fill="#FF914D"/>
<path d="M120.363 181.564H104.579C103.087 181.564 101.879 180.307 101.879 178.762C101.879 177.992 102.178 177.29 102.669 176.784C103.156 176.279 103.833 175.963 104.579 175.963H117.659C119.152 175.963 120.363 177.22 120.363 178.762V181.564Z" fill="#FF914D"/>
<path d="M124.478 172.966C124.007 173.471 123.36 173.785 122.642 173.785H97.3081V170.985C97.3081 169.437 98.4697 168.186 99.9043 168.186H122.642C124.077 168.186 125.239 169.437 125.239 170.985C125.239 171.758 124.945 172.46 124.478 172.966Z" fill="#FF914D"/>
<path d="M110.292 160.185C109.291 159.671 108.062 159.372 107.031 159.363C105.184 159.346 103.619 159.599 102.118 160.577C103.639 162.703 105.87 164.225 108.469 164.707C108.745 164.759 109.023 164.8 109.305 164.826C109.494 164.843 109.59 164.855 109.778 164.861L106.793 161.64C106.793 161.64 109.337 161.82 110.975 163.15C110.975 163.15 112.386 160.243 116.068 158.629L112.99 164.448C113.353 164.338 113.707 164.207 114.053 164.053C117.497 162.537 120.05 159.038 120.401 154.752C120.416 154.563 120.427 154.371 120.436 154.18C116.443 154.67 112.311 157.455 110.292 160.182V160.185Z" fill="#FF914D"/>
</svg>
