<?xml version="1.0" encoding="UTF-8"?>
<svg width="20px" height="12px" viewBox="0 0 20 12" version="1.1" xmlns="http://www.w3.org/2000/svg" xmlns:xlink="http://www.w3.org/1999/xlink">
    <title>ic_double_check_mark</title>
    <g id="Page-1" stroke="none" stroke-width="1" fill="none" fill-rule="evenodd">
        <g id="ic_double_check_mark" transform="translate(0.749999, 0.935547)">
            <path d="M11.6533008,1.65767332 C12.0165008,1.24162332 11.9737008,0.609913323 11.5577008,0.246693323 C11.1416008,-0.116516677 10.5099008,-0.0736866768 10.1467008,0.342353323 L3.82859076,7.57945332 L1.75333076,5.20235332 C1.39012076,4.78635332 0.758400764,4.74345332 0.342360764,5.10665332 C-0.0736892358,5.46995332 -0.116519236,6.10165332 0.246700764,6.51765332 L3.07527076,9.75765332 C3.26517076,9.97515332 3.53983076,10.1000533 3.82859076,10.1000533 C4.11734076,10.1000533 4.39200076,9.97515332 4.58190076,9.75765332 L11.6533008,1.65767332 Z" id="Shape" fill="#F29727"></path>
            <path d="M18.2255008,1.71793332 C18.6064008,1.31800332 18.5909008,0.685033323 18.1910008,0.304143323 C17.7911008,-0.0767566768 17.1581008,-0.0613266768 16.7772008,0.338603323 L9.77250076,7.69325332 C9.45710076,7.56755332 9.08540076,7.60565332 8.79550076,7.82645332 C8.35610076,8.16095332 8.27120076,8.78845332 8.60580076,9.22785332 L8.99120076,9.73405332 C9.16870076,9.96705332 9.43930076,10.1106533 9.73180076,10.1267533 C10.0242008,10.1428533 10.3090008,10.0300533 10.5110008,9.81795332 L18.2255008,1.71793332 Z" id="Path"></path>
        </g>
    </g>
</svg>