<svg width="24" height="24" viewBox="0 0 24 24" fill="none" xmlns="http://www.w3.org/2000/svg">
<path fill-rule="evenodd" clip-rule="evenodd" d="M14.4033 8.59322C14.7665 8.17717 14.7237 7.54546 14.3077 7.18224C13.8916 6.81903 13.2599 6.86186 12.8967 7.2779L6.57859 14.515L4.50333 12.1379C4.14012 11.7219 3.5084 11.679 3.09236 12.0422C2.67631 12.4055 2.63348 13.0372 2.9967 13.4532L5.82527 16.6932C6.01517 16.9107 6.28983 17.0356 6.57859 17.0356C6.86734 17.0356 7.142 16.9107 7.3319 16.6932L14.4033 8.59322ZM20.9755 8.65348C21.3564 8.25355 21.3409 7.62058 20.941 7.23969C20.5411 6.85879 19.9081 6.87422 19.5272 7.27415L12.5225 14.6288C12.2071 14.5031 11.8354 14.5412 11.5455 14.762C11.1061 15.0965 11.0212 15.724 11.3558 16.1634L11.7412 16.6696C11.9187 16.9026 12.1893 17.0462 12.4818 17.0623C12.7742 17.0784 13.059 16.9656 13.261 16.7535L20.9755 8.65348Z" fill="#F29727"/>
</svg>
