<svg width="25" height="12" viewBox="0 0 25 12" fill="none" xmlns="http://www.w3.org/2000/svg">
<path d="M22.7605 11.7749H19.1847C17.2584 11.7749 15.6973 10.2138 15.6973 8.28743V0.223633H18.3133V8.28743C18.3133 8.76817 18.704 9.15887 19.1847 9.15887H24.94V9.59544C24.94 10.7998 23.9649 11.7749 22.7605 11.7749Z" fill="white"/>
<path d="M14.1195 7.41593V8.28737C14.1195 10.2137 12.5584 11.7748 10.632 11.7748H2.70924C1.50485 11.7748 0.529785 10.7998 0.529785 9.59538V9.15881H10.632C11.1128 9.15881 11.5035 8.76811 11.5035 8.28737V7.41593C11.5035 6.93519 11.1128 6.54449 10.632 6.54449H9.15926C7.95487 6.54449 6.97981 5.56943 6.97981 4.36504V3.92847H10.632C12.5567 3.92847 14.1195 5.48959 14.1195 7.41593Z" fill="white"/>
<path d="M24.9402 7.41593H20.1448V5.01904H23.5813C24.3321 5.01904 24.9402 5.62718 24.9402 6.37801V7.41593Z" fill="white"/>
<path d="M11.121 2.83965H6.97949V0.223633H13.3004V0.660199C13.3004 1.86459 12.3253 2.83965 11.121 2.83965Z" fill="white"/>
</svg>
