<?xml version="1.0" encoding="UTF-8"?>
<svg width="13px" height="13px" viewBox="0 0 13 13" version="1.1" xmlns="http://www.w3.org/2000/svg" xmlns:xlink="http://www.w3.org/1999/xlink">
    <title>ic_approved</title>
    <g id="Page-1" stroke="none" stroke-width="1" fill="none" fill-rule="evenodd">
        <g id="ic_approved" fill-rule="nonzero">
            <polygon id="Path" fill="#1091A6" points="6.4925944 0.871744792 8.5090332 0 9.61458333 1.88208008 11.7590332 2.36132812 11.5474447 4.53328451 13 6.18155924 11.5527344 7.81502279 11.7590332 10.0028483 9.62727865 10.4736328 8.5090332 12.3641764 6.5074056 11.4913737 4.4909668 12.3641764 3.38541667 10.4820964 1.2409668 10.0028483 1.45255534 7.82983398 0 6.18155924 1.44726562 4.5480957 1.2409668 2.36132812 3.37272135 1.89054362 4.4909668 0 6.4925944 0.871744792"></polygon>
            <path d="M4.01171875,6.8766276 C3.36954753,6.18579102 4.35555013,5.15641276 5.06966146,5.80810547 C5.32145182,6.03767904 5.6875,6.37304688 5.94140625,6.60050456 L7.89860026,4.19580078 C8.57991536,3.49121094 9.6558431,4.52587891 8.98299154,5.23470052 L6.52433268,8.16731771 C6.24480935,8.46256289 5.7815829,8.48315073 5.4769694,8.21386719 C5.06013997,7.81713867 4.44864909,7.24690755 4.01171875,6.8766276 Z" id="Path" fill="#FFFFFF"></path>
        </g>
    </g>
</svg>